<svg width="126" height="136" viewBox="0 0 126 136" fill="none"
	xmlns="http://www.w3.org/2000/svg">
	<g clip-path="url(#clip0_2_6183)">
		<circle cx="48.5" cy="38.5" r="30.5" fill="white"/>
		<path d="M97 114.433C97 138.421 75.2858 135.926 48.5 135.926C21.7142 135.926 0 138.421 0 114.433C0 90.4457 21.7142 71 48.5 71C75.2858 71 97 90.4457 97 114.433Z" fill="white"/>
		<path d="M105 38.5C105 52.2332 99.5921 61.5829 87.9811 63.594C85.2602 64.0652 82.9271 61.5755 84.5342 59.3299C88.3666 53.975 98.0526 51.4192 98.0526 38.5C98.0526 25.5808 88.3666 23.025 84.5342 17.6701C82.9271 15.4245 85.2602 12.9348 87.9811 13.406C99.5921 15.4171 105 24.7668 105 38.5Z" fill="white"/>
		<path d="M126 38.5C126 60.1337 117.437 74.5626 98.9969 76.7191C96.2542 77.0399 93.8856 74.6627 94.9992 72.1358C99.2849 62.4111 115.895 59.6788 115.895 38.5C115.895 17.3212 99.2849 14.5889 94.9992 4.86421C93.8856 2.3373 96.2542 -0.0398961 98.9969 0.28086C117.437 2.43737 126 16.8663 126 38.5Z" fill="white"/>
		<path d="M40.8352 35.3634C41.4759 35.4435 41.8827 36.9929 41.8827 36.9929C41.8827 36.9929 43.1417 35.578 44 35.3634" stroke="#5B2222" stroke-width="3" stroke-linecap="round"/>
		<path d="M40.8352 35.3634C41.4759 35.4435 41.8827 36.9929 41.8827 36.9929C41.8827 36.9929 43.1417 35.578 44 35.3634" stroke="#5B2222" stroke-width="3" stroke-linecap="round"/>
		<path d="M40.8352 35.3634C41.4759 35.4435 41.8827 36.9929 41.8827 36.9929C41.8827 36.9929 43.1417 35.578 44 35.3634" stroke="#5B2222" stroke-width="3" stroke-linecap="round"/>
		<path d="M40.8352 35.3634C41.4759 35.4435 41.8827 36.9929 41.8827 36.9929C41.8827 36.9929 43.1417 35.578 44 35.3634" stroke="#5B2222" stroke-width="3" stroke-linecap="round"/>
		<path d="M40.8352 35.3634C41.4759 35.4435 41.8827 36.9929 41.8827 36.9929C41.8827 36.9929 43.1417 35.578 44 35.3634" stroke="#5B2222" stroke-width="3" stroke-linecap="round"/>
		<path d="M62.6118 38.2869C59.3336 38.278 61.595 37.2366 63.6621 37.2422" stroke="#5B2222" stroke-width="3" stroke-linecap="round"/>
		<path d="M38.7401 50.0288C37.2004 51.7885 49.0936 54.1081 51.3104 54.2189C55.1474 54.4108 56.4209 53.2138 59.6906 52.1239" stroke="#5B2222" stroke-width="3" stroke-linecap="round"/>
		<path d="M63.5 35.75V36.375" stroke="#5B2222" stroke-width="3" stroke-linecap="round"/>
		<path d="M62.5001 36.25C62.0128 36.25 60.5774 35.6289 60.7778 36.4306C61.0652 37.58 62.1273 37.5 63.0695 37.5C63.6736 37.5 63.4157 36.9036 63.5973 36.5C63.7778 36.0989 63.9408 36.1704 64.1876 35.9236C64.8185 35.2927 64.1738 35.4675 63.7084 35.75C63.3235 35.9837 62.8249 36.035 62.3751 36.125" stroke="#5B2222" stroke-width="3" stroke-linecap="round"/>
		<path d="M64.875 36.5C64.4801 36.579 63.9941 37.207 63.75 37.5" stroke="#5B2222" stroke-width="3" stroke-linecap="round"/>
		<path d="M38.5 50.125C38.4733 49.9115 37.8926 49.6194 37.75 49.375C37.6351 49.178 37.1483 47.888 37.125 47.9028C36.8662 48.0662 36.6912 48.6193 36.5694 48.8611C36.2172 49.5604 35.8542 50.2568 35.5208 50.9653C35.2233 51.5975 35.3353 51.4958 36 51.375" stroke="#5B2222" stroke-width="3" stroke-linecap="round"/>
		<path d="M60.8751 51.5C60.5891 51.5 60.4183 51.5114 60.6389 51.1806C61.0408 50.5777 61.6112 50.0908 61.9792 49.4653C62.1605 49.1571 62.2385 50.5503 62.3612 50.8056C62.6041 51.3109 63.0096 52.173 63.5001 52.5" stroke="#5B2222" stroke-width="3" stroke-linecap="round"/>
		<path d="M62.8751 39.25C63.175 38.417 63.6161 37.437 64.1181 36.7153C64.5924 36.0336 62.5754 37.329 62.3751 36.9167C62.0583 36.2644 62.9213 35.2494 63.3542 34.8958C64.8102 33.7068 63.5009 36.7333 63.2501 37.0625C62.5998 37.916 60.0789 39.3618 60.0695 37.1944C60.0649 36.1152 60.8125 35.2894 61.882 35.1736C62.6959 35.0855 64.3062 35.5073 64.3612 36.5972C64.3979 37.3238 63.4758 37.8113 62.9723 37.9722C61.5215 38.4359 59.4931 38.4033 58.2779 37.3542C57.2813 36.4938 57.5655 35.1506 58.8334 34.7639C60.1572 34.3602 61.9308 34.883 62.8126 35.9444C63.1524 36.3535 63.5289 37.168 62.9654 37.6389C62.316 38.1815 61.1487 37.1084 61.8473 36.8611C62.0944 36.7737 64.4298 37.0185 64.2362 37.5347C64.1915 37.654 63.9759 37.4681 63.889 37.375C63.5388 36.9998 63.3938 36.5783 63.7084 36.0972C64.0513 35.5729 64.7965 35.2969 65.3751 35.2361C65.8002 35.1914 67.3552 35.3041 66.7987 36.2014C66.3949 36.8524 65.2693 37.3669 64.5279 37.4167C63.5658 37.4812 64.7133 36.2095 64.7709 36.1458C64.8308 36.0796 67.0228 34.3353 66.7917 35.375C66.7556 35.5378 66.5051 36.005 66.3751 35.875" stroke="#FDF9F9" stroke-width="3" stroke-linecap="round"/>
		<path d="M62.75 33.375H62.875" stroke="#F51717" stroke-width="3" stroke-linecap="round"/>
		<path d="M60 33.375H60.125" stroke="#F51717" stroke-width="3" stroke-linecap="round"/>
		<path d="M61.5 34.625V34.875" stroke="#F51717" stroke-width="3" stroke-linecap="round"/>
		<path d="M61.75 34.625C61.75 35.2164 61.625 35.7812 61.625 36.375" stroke="#F51717" stroke-width="3" stroke-linecap="round"/>
		<path d="M59.875 33.875C59.5558 34.9601 59.9092 35.2949 60.8194 35.75C61.7904 36.2355 63.4391 35.1581 64.1111 34.4861C64.2077 34.3894 64.6588 33.697 64.4791 33.8264C64.1959 34.0303 62.8273 35.4551 62.4722 35.0764C62.2292 34.8172 62.4978 33.8135 62.5764 34.4028C62.6476 34.9371 62.279 35.4194 61.6666 35.2917C60.2664 34.9997 59.0178 32.9643 59.2222 31.5833C59.5901 29.0977 65.3761 34.4315 63.0555 35.125C61.4204 35.6137 59.5152 33.7366 58.7708 32.5764C58.0431 31.4422 57.571 29.2743 59.7916 29.6389C61.3641 29.8971 64.016 31.337 64.2777 33.1389C64.5649 35.1156 61.5945 34.5248 60.7916 34.0556C59.953 33.5653 58.1343 31.4631 59.6736 30.5417C61.1348 29.667 65.4785 31.2792 64.4722 33.4653C63.5907 35.3803 60.2064 35.5919 58.5277 35.0972C56.4824 34.4945 56.6234 32.6174 58.243 31.625C59.931 30.5907 62.9665 30.3485 64.4583 31.9583C66.2221 33.8617 63.0079 35.2539 61.7291 35.3472C60.0286 35.4714 57.0851 34.5011 57.3333 32.2083C57.547 30.2343 60.4932 29.7797 61.8472 30.6528C63.5111 31.7257 61.7214 33.7999 60.3611 33.7361C60.1043 33.7241 59.8728 33.3888 59.8819 33.1319C59.8949 32.7643 60.1451 32.4148 60.4166 32.1667C62.5838 30.1858 60.2791 32.917 62.375 32" stroke="#F51717" stroke-width="3" stroke-linecap="round"/>
		<path d="M67.8749 32C66.8399 32.4176 65.7497 32.7409 64.6666 33C63.9293 33.1764 61.8677 33.8934 61.1805 32.9722C60.9638 32.6818 61.0586 31.5348 61.0277 31.8958C60.9556 32.7369 60.7274 33.9947 59.7638 34.3194C59.034 34.5654 57.3695 33.5831 57.9652 32.6667C58.4565 31.9108 59.5214 33.3671 59.6666 33.6528C59.7988 33.9129 59.8419 34.7795 59.6944 34.5278C59.3905 34.0094 59.5503 33.1794 59.4999 32.625" stroke="#F51717" stroke-width="3" stroke-linecap="round"/>
		<path d="M57.6251 30C58.7767 30.2555 60.9487 30.7104 62.139 31.0694C62.6573 31.2258 63.7462 31.578 64.1945 32.0555C65.5397 33.4885 62.0647 34.7567 61.3681 34.993C60.7576 35.2002 57.563 36.3755 57.1945 35.1042C56.7572 33.5953 59.7894 32.4191 60.8334 32.5694C62.4626 32.804 60.6264 34.5662 59.5279 34.0417C58.8234 33.7053 59.4819 32.9233 59.764 32.7222C60.8009 31.9827 62.483 31.9144 63.5348 32.6597C65.3691 33.9596 62.7736 35.5302 61.6112 35.7639C61.2256 35.8414 59.947 36.0351 59.7362 35.2778C59.3537 33.9036 62.1669 33.1555 62.889 33.0694C63.8805 32.9512 65.4752 33.1296 66.2917 33.8472C67.1047 34.5616 66.9433 35.551 66.139 36.1944C65.1702 36.9694 63.1991 37.3906 62.014 37.1944C59.9458 36.8522 59.0165 34.8913 60.0834 33.0903C60.6575 32.1212 61.5285 31.6389 62.6112 31.6389C62.7292 31.6389 62.9467 31.8392 62.8473 31.9028C62.5875 32.0688 62.2448 32.0952 61.9376 32.0694C61.7498 32.0537 60.1925 31.7545 61.382 31.1597C62.7302 30.4856 65.4165 30.5018 65.9723 32.3333C66.6854 34.6833 63.3617 37.7812 61.0973 36.5139C60.199 36.0111 60.0308 34.7165 60.389 33.875C61.0585 32.3019 63.0038 31.6851 64.5556 31.8542C66.5968 32.0765 66.45 33.7124 64.6945 34.25C64.2142 34.3971 63.2101 34.5863 62.764 34.0764C61.8525 33.0347 64.4263 32.0126 64.8334 31.9028C65.7813 31.647 67.3132 31.5749 68.2501 32.0278C69.0227 32.4012 69.2264 33.1261 68.5279 33.7222C67.7987 34.3444 66.2595 34.6518 65.3612 34.5833C64.1458 34.4907 62.7396 33.5579 63.7362 32.2292C64.3192 31.4518 65.2742 31.0989 66.2154 31.1042C66.7711 31.1072 67.7438 31.292 67.5209 32.1528C67.0987 33.7835 63.6876 34.3202 62.9167 32.7361C62.6636 32.2159 62.7529 31.482 62.8334 30.9444C62.9119 30.4201 63.0451 30.4071 62.8195 30.7917C62.4405 31.4378 59.2035 35.9621 58.257 34.368C57.938 33.8307 58.072 32.0667 58.0834 31.6805C58.1101 30.7754 58.2615 29.8658 58.1667 28.9653C58.0901 28.2376 57.5536 29.274 57.5348 29.2986C56.7637 30.307 55.7643 31.3575 55.139 32.4583C55.095 32.5357 55.0925 32.7348 55.1806 32.7222C55.5466 32.6699 55.8742 32.4636 56.2084 32.3055C56.8206 32.016 59.6525 30.5368 60.1945 30.25C60.6488 30.0096 61.9958 29.2592 61.5417 29.5C60.0732 30.2786 58.6772 31.1761 57.2431 32.0139C56.801 32.2722 55.8807 33.0621 55.8056 32.5555C55.7311 32.0522 56.8806 30.7629 56.9445 30.6944C57.7711 29.8095 61.1661 27.255 61.7362 29.8055C61.7773 29.9897 61.719 30.6621 61.7362 30.875C61.7775 31.3866 61.9604 32.0718 62.0973 32.5278C62.9082 35.2283 64.0244 37.8284 65.7154 40.0972C66.7085 41.4298 66.8395 42.7339 66.6529 44.4236C66.4065 46.6539 65.9501 48.3913 65.0626 50.4861C64.8201 51.0583 62.8483 55.9834 61.014 55.0417C59.4852 54.2568 61.8748 51.6835 60.9029 51.1528C60.8604 51.1296 59.3378 51.0851 59.264 50.9583C58.8066 50.1732 63.0363 48.6368 63.2154 48.5694C63.5918 48.4278 63.9735 48.2135 64.3751 48.2361C64.593 48.2483 64.031 48.5113 63.8334 48.6042C62.4995 49.231 60.5288 49.9217 59.1737 50.3333C58.4527 50.5523 57.7289 50.7762 56.9862 50.9028C56.6869 50.9538 56.2778 51.0883 56.0765 50.8611C55.6653 50.3972 58.6827 48.9803 58.9306 48.9028C59.7909 48.6337 59.4896 49.1429 59.139 49.5417C58.5872 50.1691 57.5354 50.963 56.889 51.4722C56.5878 51.7094 55.6684 52.1627 56.0417 52.25C56.9469 52.4616 57.9897 51.9557 58.9654 52.2014C60.6789 52.6328 59.0287 54.1879 58.2779 53.8125C57.2641 53.3056 61.5288 49.4246 62.8195 49.7083C63.7866 49.9209 61.4065 52.8355 61.2501 53.1528C60.827 54.0107 64.5738 51.297 63.8334 51.9028C63.394 52.2622 62.0294 53.1648 61.7501 53.3472C61.6023 53.4437 60.0645 54.4823 59.5904 54.5972C59.3421 54.6574 59.6878 54.0826 59.8265 53.868C60.4432 52.9139 60.1689 52.9784 59.014 53.25C57.2669 53.6608 56.0333 54.0942 54.1945 54.2639C53.3095 54.3455 50.9979 54.5004 50.1112 53.6667C49.2932 52.8975 50.535 51.8382 50.9723 51.5833C52.7557 50.5437 55.1634 50.5647 57.1181 50.9236C57.8292 51.0541 59.2989 51.3587 58.9931 52.0139C58.5357 52.9941 55.5321 53.5652 55.2501 53.625C52.6076 54.1855 50.3364 54.3811 47.632 54.1667C45.9945 54.0368 42.3452 53.6231 41.2779 51.8472C41.0346 51.4425 42.0841 51.2125 42.5556 51.2361C44.3353 51.3251 46.0914 51.6818 47.8612 51.8889C50.9827 52.2541 51.0127 52.2314 53.9445 52.4861C54.2825 52.5155 54.7412 52.3157 54.9584 52.5764C55.16 52.8182 54.3284 52.5852 54.014 52.5694C52.9877 52.518 51.9613 52.4633 50.9376 52.375C45.7165 51.9244 40.4387 51.1996 35.5001 49.368C34.8207 49.1161 36.8945 49.763 37.5904 49.9653C38.13 50.1221 38.6603 50.3864 39.2223 50.3889C39.8451 50.3916 38.4769 49.3652 37.9723 49C37.4966 48.6557 36.7924 47.9364 36.3473 48.3194C35.8713 48.7291 35.7779 49.4445 35.5834 50.0417C35.4971 50.3067 35.3482 50.5909 35.4167 50.8611C35.4535 51.0061 35.6925 51.078 35.8334 51.0278C36.9796 50.6188 38.2308 49.296 38.8404 48.2708C39.5727 47.0391 36.65 50.4864 36.5626 51.9167C36.5071 52.8249 36.9532 53.3174 37.8751 53.25C39.2836 53.1469 40.4746 51.7481 40.5417 50.375C40.6102 48.9758 39.0426 48.4821 38.3334 49.6389C37.6017 50.8324 38.8607 51.1903 39.139 49.7153C39.3062 48.829 38.8859 47.7144 37.8334 47.7014C36.8534 47.6893 36.3594 49.5155 37.0695 49.3194C38.0415 49.051 38.6922 47.5711 37.8473 46.8194C36.8424 45.9254 35.4958 47.4621 36.764 48.1667C38.2611 48.9984 40.4067 48.5939 42.0209 48.4653C42.7904 48.4039 43.162 48.4176 43.7501 48.875" stroke="#FFFCFC" stroke-width="3" stroke-linecap="round"/>
		<path d="M34.125 51.875C35.1745 52.3747 36.2511 53.0229 37.375 53.3333C39.7276 53.9831 42.1571 54.1351 44.5833 54.125C45.7571 54.1201 46.9567 54.1377 48.1111 53.8889C49.9411 53.4944 51.6797 52.6565 53.3472 51.8333C54.9097 51.062 56.4166 50.2018 57.8472 49.2083C58.0315 49.0804 58.2024 48.9648 58.4097 48.8819C58.4751 48.8558 58.2777 48.9657 58.2639 49.0347C58.1536 49.5859 58.1826 50.4299 58.3056 50.9722C58.5807 52.1854 60.0102 52.6751 61 53.125" stroke="#FC0909" stroke-width="3" stroke-linecap="round"/>
		<path d="M33.6251 51.375C31.8712 52.1155 30.5116 52.041 28.6528 51.5139C27.9092 51.303 29.2193 51.5867 29.3959 51.6111C29.7553 51.6607 30.1386 51.625 30.5001 51.625" stroke="#FC0909" stroke-width="3" stroke-linecap="round"/>
		<path d="M61.875 33.5H61.75" stroke="#FC0909" stroke-width="3" stroke-linecap="round"/>
		<path d="M59.875 34.25V33.875" stroke="#FC0909" stroke-width="3" stroke-linecap="round"/>
		<path d="M61 35.375H61.25" stroke="#FC0909" stroke-width="3" stroke-linecap="round"/>
		<path d="M67.5 42.375C67.1671 42.3393 66.8286 42.3472 66.6736 41.9931C66.6376 41.9108 66.5444 41.4978 66.7153 41.4583C67.0185 41.3884 67.8376 42.0012 67.7222 42.3472C67.5328 42.9156 66.6069 42.3243 67.132 42.4931C67.6412 42.6568 67.5713 43.1632 67 43" stroke="#FC0909" stroke-width="3" stroke-linecap="round"/>
		<path d="M31.3749 41C31.1644 40.4738 32.1571 40.8124 31.6944 41.0695C31.4628 41.1981 31.2863 40.3217 31.4652 40.1667C31.5253 40.1146 32.1661 40.8952 32.2499 41" stroke="#FC0909" stroke-width="3" stroke-linecap="round"/>
		<path d="M56.5 50.5C56.6193 50.5226 59.4919 50.899 58.3889 51.4306C58.2312 51.5065 55.8889 52.0586 56.0139 51.75C56.1895 51.3161 57.0278 51.2918 57.25 51.625" stroke="#FC0909" stroke-width="3" stroke-linecap="round"/>
		<path d="M57.7501 51.375C57.7177 52.0073 57.5785 52.7852 56.7917 52.8681C55.9437 52.9573 54.8968 52.5168 54.3056 51.9167C53.6166 51.2171 54.8217 51.4082 55.0417 51.4931C56.0543 51.8836 55.0455 52.0545 55.514 51.4583C55.9391 50.9172 56.8829 50.9476 57.5001 50.875" stroke="#FC0909" stroke-width="3" stroke-linecap="round"/>
		<path d="M51.3749 52.875C53.1017 52.875 58.2812 52.8192 56.5554 52.8819C55.6925 52.9133 54.7339 53.0715 53.8818 52.8889C52.6386 52.6225 54.611 51.8883 54.611 51.8056C54.611 51.5562 54.1362 51.9698 53.8888 52C53.7098 52.0219 54.1854 51.7772 54.361 51.7361C55.2481 51.5285 56.3141 51.3788 57.2221 51.5417C57.5034 51.5921 57.9026 51.6456 57.9929 51.9167C58.2308 52.6301 56.5853 52.5635 55.8332 52.5694C55.5672 52.5715 53.4045 52.5286 52.9582 51.9861C52.8457 51.8493 53.083 51.6011 53.2499 51.5417C54.2753 51.1763 56.2992 51.2995 57.2221 51.4306C58.2422 51.5754 60.4669 52.0738 61.4166 52.7639C61.6337 52.9217 61.8814 53.2701 61.7429 53.5C61.2756 54.2759 58.5868 54.0282 58.4166 54.0139C57.4686 53.934 50.5362 52.8395 51.6666 50.5069C52.1116 49.5887 54.029 49.4306 54.6735 49.375C55.3585 49.3159 56.0527 49.3127 56.736 49.3889C57.3596 49.4585 58.771 49.7559 58.4027 50.2639C57.9977 50.8223 55.7981 50.7884 55.5971 50.7778C54.7819 50.7347 52.7449 50.4685 51.9999 49.8056C51.812 49.6383 51.7459 49.2404 51.9166 49.0556C52.2221 48.7245 52.7208 48.6071 53.1666 48.5417C54.259 48.3814 56.5872 48.4676 56.2638 50.1875C56.2093 50.4773 55.6375 51.0406 55.9304 51.0069C56.3852 50.9548 57.1006 50.5312 57.5902 50.6944C58.0769 50.8567 57.2466 51.7308 56.8332 52.0347C55.8199 52.7797 53.882 54.0085 52.4999 53.5972C51.5033 53.3007 52.6139 53.1309 51.9999 52.6944C51.7879 52.5437 51.4959 52.5231 51.236 52.5347C50.2704 52.5777 46.1518 53.3703 45.7916 53.4306C41.736 54.1091 42.6358 53.9223 38.9304 54.4236C37.2879 54.6458 36.3106 54.8145 38.5554 55.2778C39.1276 55.3959 40.8148 55.6612 40.3054 55.375C39.8438 55.1156 37.5966 54.4339 37.236 54.125C36.5144 53.507 39.0639 53.507 40.0138 53.4861C42.1229 53.4396 48.4478 53.5697 46.3402 53.6597C45.3343 53.7027 41.9367 53.6258 41.3402 53.6111C40.3067 53.5856 37.2174 53.5814 38.2429 53.4514C39.1183 53.3404 42.5512 53.4521 42.8124 53.4653C43.8213 53.5163 44.8345 53.5567 45.8332 53.7083C46.3969 53.7939 47.0224 53.8323 47.4791 54.1736C47.6457 54.2982 47.4021 54.6606 47.2082 54.7361C45.923 55.2365 43.0905 55.2447 41.9166 55.1944C40.9928 55.1549 40.0713 55.0429 39.1596 54.8889C38.6689 54.806 38.0703 54.8416 37.7221 54.4861C37.53 54.29 38.2268 54.243 38.4999 54.2153C39.4216 54.1217 40.3513 54.1328 41.2777 54.125C43.5473 54.1058 50.3529 54.3587 48.0832 54.3472C45.6366 54.3348 42.732 54.0894 40.3888 53.8472C38.8203 53.6851 37.2532 53.501 35.6943 53.2639C34.68 53.1096 33.6669 52.9302 32.6735 52.6736C32.2627 52.5675 31.7889 52.4912 31.4999 52.1806C31.1471 51.8013 32.3603 51.5635 32.861 51.4306C33.2998 51.3141 33.7497 51.2443 34.1943 51.1528C34.6553 51.058 35.9739 50.993 35.5554 50.7778C34.8461 50.413 33.9641 50.6518 33.1666 50.6389C32.1504 50.6225 31.1336 50.6458 30.1179 50.6111C29.3908 50.5863 29.843 50.5381 30.2777 50.4792C31.4418 50.3213 32.6302 50.1718 33.8054 50.1389C34.4794 50.12 34.1478 50.2324 33.6943 50.3056C32.6645 50.4717 31.3137 50.5755 30.3054 50.6389C29.3437 50.6993 28.3772 50.6742 27.4166 50.75C26.7947 50.7991 28.6415 51.0373 29.2013 51.3125C30.1376 51.7727 30.1105 52.4064 29.4304 53.0486C28.9724 53.4812 27.658 52.9707 27.1388 52.8472C25.3247 52.4158 28.132 52.2803 28.4721 52.2847C29.8197 52.3023 31.0768 52.5505 32.3749 52.875" stroke="white" stroke-width="3" stroke-linecap="round"/>
		<path d="M58.0001 47.75C58.727 47.7928 58.989 48.1078 59.1876 48.7431C59.3002 49.1036 59.2209 49.3291 58.9028 49.6042C57.7075 50.638 56.0432 51.2911 54.6112 51.875C52.5719 52.7065 50.395 53.5464 48.1876 53.7917C45.5057 54.0896 42.7417 53.2604 40.0695 53.0833C39.6302 53.0542 37.9372 52.9969 39.6806 53.5417C42.5965 54.4529 45.7007 54.886 48.7084 55.3611C52.5445 55.9671 49.9912 55.4037 48.4792 55.0208C45.0654 54.1565 41.6887 53.1943 38.3334 52.125C37.4155 51.8325 34.6979 50.8566 35.5834 51.2361C35.9614 51.3981 36.3611 51.4954 36.7501 51.625" stroke="white" stroke-width="3" stroke-linecap="round"/>
		<path d="M32.5001 40.875C31.7298 41.0009 30.7817 41.3043 29.9932 41.2292C29.5316 41.1852 30.334 40.1581 30.5209 40.0833C31.5358 39.6774 31.8757 41.8844 32.1807 42.4444C32.3473 42.7504 32.4311 41.7914 32.507 41.4514C32.695 40.6095 33.0713 39.861 33.5557 39.1528C33.7019 38.9389 33.8106 38.5794 34.0695 38.5694C34.1464 38.5665 34.1938 38.6649 34.2362 38.7292C34.5543 39.2114 34.7631 39.7574 35.0279 40.2708C36.1395 42.426 37.3704 44.6063 39.0418 46.3889C41.5692 49.0845 44.607 50.8132 48.1459 51.8194C51.3894 52.7417 54.9623 53.1252 58.3334 53C60.1615 52.9321 61.8405 52.6259 63.2154 51.368C65.0337 49.7045 65.9625 47.37 67.0695 45.2361C67.6197 44.1756 68.5554 43.3294 69.0834 42.2917C69.2073 42.0482 68.5277 42.2341 68.264 42.3055C67.4182 42.5346 66.6629 42.8966 65.8612 43.2361C64.7754 43.696 65.9614 42.0398 66.1112 41.625C66.2649 41.1995 67.417 40.8752 67.8195 40.6389C68.0911 40.4795 68.3328 40.0289 68.6251 40.1458C68.6935 40.1732 68.5267 40.2558 68.4723 40.3055C68.1438 40.6061 67.6305 41.0367 67.2918 41.2917C66.747 41.7016 65.4228 42.981 65.5279 41.6389C65.5576 41.2591 65.6046 40.8649 65.7432 40.5069C65.7867 40.3945 65.892 40.3123 65.7918 40.375C65.5452 40.5291 65.3316 40.6685 65.1251 40.875" stroke="white" stroke-width="3" stroke-linecap="round"/>
		<path d="M39.375 46.875C39.8375 46.9213 39.8797 47.4175 40.2014 47.6319C40.7163 47.9753 40.9053 48.5442 41.3056 48.9444C42.4261 50.065 43.923 50.5233 45.4722 50.8194C47.6459 51.235 49.9285 51.1723 52.1319 51.1111C53.5015 51.0731 54.8881 50.9934 56.125 50.375" stroke="white" stroke-width="3" stroke-linecap="round"/>
		<path d="M37.625 48.375C37.625 49.4503 38.8676 50.1274 39.6528 50.6944C40.4558 51.2744 42.0334 51.7266 43.0069 51.8889C43.4903 51.9694 43.9041 52.3271 44.3958 52.3681C45.127 52.429 45.7733 52.4955 46.5 52.625C48.0176 52.8955 49.6348 53.2307 51.1667 53.3611C52.7601 53.4967 54.5334 53.7028 56.125 53.4375C57.5973 53.1921 58.5985 52.4571 59.625 51.4306C60.7063 50.3493 61.6175 48.665 63 47.875" stroke="#FE0606" stroke-width="3" stroke-linecap="round"/>
		<path d="M44.375 53.25C44.375 55.5469 46.3651 56.2524 48.1181 57.0208C49.8304 57.7715 51.723 58.575 53.5972 58.8194C54.9232 58.9924 56.9464 59.2447 58.0556 58.375C59.3686 57.3455 59.8982 56.014 60.4306 54.4931C60.712 53.689 61.125 52.8683 61.125 52" stroke="#FE0606" stroke-width="3" stroke-linecap="round"/>
		<path d="M62.875 48.125C62.6108 49.2807 62 50.3042 62 51.5" stroke="#FE0606" stroke-width="3" stroke-linecap="round"/>
		<path d="M44.0001 54.625C43.3302 54.2342 42.695 53.8011 41.9862 53.4861C41.0858 53.0859 40.5183 51.9172 39.9306 51.1806C39.4145 50.5336 38.8659 49.8637 38.257 49.3056C37.5773 48.6825 38.5784 49.9685 38.7362 50.1806C39.6729 51.4392 40.6804 52.4026 41.9306 53.3194C42.515 53.748 43.2358 54.1108 43.7501 54.625" stroke="#FE0606" stroke-width="3" stroke-linecap="round"/>
		<path d="M37.875 47.875C37.3336 48.3846 36.9959 49.2225 36.625 49.8472C36.1283 50.6839 35.6016 51.3819 35 52.125" stroke="#FE0606" stroke-width="3" stroke-linecap="round"/>
		<path d="M64.375 47.875C65.6032 48.4432 66.8207 49.0048 68.1111 49.4167C68.3448 49.4913 68.5 49.5013 68.5 49.75" stroke="#FE0606" stroke-width="3" stroke-linecap="round"/>
		<path d="M64.3749 50C64.5551 49.9673 63.8107 49.6302 63.7083 49.5278C63.2263 49.0458 65.0693 48.0209 65.2499 47.875" stroke="#FE0606" stroke-width="3" stroke-linecap="round"/>
		<path d="M64.5 48.125V47.875" stroke="#FE0606" stroke-width="3" stroke-linecap="round"/>
		<path d="M60.875 50.5C62.7032 50.6908 64.5219 50.875 66.3611 50.875C66.8335 50.875 65.4163 50.8804 64.9445 50.9028C62.6182 51.0129 60.3021 51.291 57.9723 51.3333C57.5371 51.3412 57.099 51.3699 56.6667 51.3194C56.3878 51.2869 55.6875 51.1443 56.1111 50.625C56.7419 49.8518 58.4855 49.0436 59.2223 48.7917C60.4557 48.3698 62.8444 47.7622 64.2361 48.2917C64.5078 48.395 64.7359 48.9305 64.5139 49.118C63.4034 50.0564 60.6351 49.9323 59.5209 49.6042C57.044 48.8747 59.0556 47.9217 60.1528 47.7222C61.6798 47.4446 63.4893 47.5387 64.6389 48.7569C65.7463 49.9305 63.7909 50.1691 65.7223 49.7639C66.3147 49.6396 67.4951 49.3539 67.5278 49.9583C67.5442 50.2614 67.1901 50.4883 66.9306 50.6458C66.3941 50.9716 65.7955 51.194 65.1945 51.375C64.4746 51.5917 63.7329 51.7465 62.9861 51.8333C62.2444 51.9195 60.5442 52.019 60.8056 51.3194C61.1005 50.5301 63.4132 49.9773 63.7153 49.9028C64.6516 49.6718 66.3936 49.3435 67.4445 49.6389C67.6877 49.7072 68.0734 49.8934 68.0139 50.1389C67.8008 51.0179 64.896 52.011 64.8056 52.0417C63.0722 52.6286 60.0182 53.3139 58.1667 53.4583C57.5629 53.5054 56.9033 53.5887 56.3542 53.3333C56.14 53.2337 56.2109 52.7949 56.375 52.625C56.8523 52.1307 57.5024 51.8324 58.1111 51.5139C59.5999 50.735 61.3048 50.0631 62.9792 49.8055C63.7123 49.6928 65.4015 49.7858 65.1042 50.4653C64.5846 51.6528 61.724 52.5897 61.0834 52.8055C58.3863 53.7141 54.9244 54.6059 52.0278 54.1805C51.4589 54.097 53.1195 53.738 53.6945 53.7361C55.2166 53.7311 57.3943 53.9223 58.8334 54.5C61.0165 55.3763 60.6629 56.7491 58.6459 57.4167C57.2933 57.8643 55.73 57.9535 54.3195 57.8194C53.9674 57.786 53.5386 57.8088 53.2917 57.5555C53.1598 57.4202 53.5925 57.3009 53.7778 57.2639C55.5572 56.908 57.8771 57.0151 59.6111 57.5417C60.3952 57.7798 60.7179 58.1742 59.8056 58.5972C58.943 58.9972 57.0732 59.2708 56.1806 59.25C55.3502 59.2306 52.7278 58.7592 54.1736 57.2708C55.1199 56.2968 56.7066 55.9269 57.9584 55.7569C58.0587 55.7433 60.8477 55.366 61.2361 56.2222C61.9093 57.7062 56.0301 58.5245 55.8889 58.5417C54.8395 58.6693 52.3868 58.8009 51.2639 58.1528C50.2434 57.5638 51.2802 56.7052 51.7639 56.4722C52.9918 55.8808 55.5349 55.5823 56.5278 56.8542C57.2916 57.8325 55.814 58.3142 55.2709 58.4444C53.5064 58.8676 51.5525 58.6162 49.8334 58.1875C49.0527 57.9928 44.4153 56.7847 45.3889 54.7361C46.2006 53.0282 50.1049 53.0577 51.4306 53.9305C52.351 54.5365 49.4213 55.0313 48.3195 55.0486C47.8977 55.0552 45.4008 55.1058 44.7709 54.5139C44.2354 54.0107 45.8145 53.3758 46.5209 53.1736C48.3044 52.6631 51.3013 52.1047 53.0417 53.1528C53.2457 53.2756 53.3822 53.6522 53.2361 53.8403C52.6282 54.6231 50.333 54.7102 49.7639 54.7222C48.9805 54.7387 45.2467 54.7705 45.125 53.1528C45.0658 52.3659 46.5957 51.9592 46.9306 51.9028C47.7751 51.7604 49.3453 51.8505 50.1528 52.25C50.3835 52.3641 50.7123 52.6189 50.625 52.8611C50.5035 53.1982 50.072 53.3667 49.7223 53.4444C48.9366 53.619 48.1156 53.6513 47.3125 53.5972C45.1105 53.4489 43.362 52.9476 41.382 52.0139C40.8703 51.7726 39.8131 50.4738 40.0209 51C40.6046 52.4789 38.5128 52.9166 37.4723 52.9861C36.5259 53.0493 34.6013 52.852 33.8611 51.9722C33.0525 51.0111 34.3861 50.178 35.0139 49.9583C37.5783 49.0613 40.7242 49.6032 43.1667 50.5833C43.9315 50.8902 45.6778 51.809 44.9861 52.2569C44.0767 52.8459 40.7598 52.1465 40.4167 52.0764C38.8625 51.7587 34.2214 50.958 33.6389 48.8055C33.3704 47.8133 35.2786 47.4436 35.5834 47.4028C36.5397 47.2747 38.287 47.4331 39.2084 47.8472C41.0834 48.6899 38.5675 49.394 38.0417 49.4792C37.5653 49.5563 33.6594 49.4804 36.0278 48.3611C36.7855 48.003 38.7246 47.3384 39.5556 47.875C40.087 48.2181 37.7082 50.006 38.5695 50.9583C39.7576 52.2722 42.824 52.195 44.3681 52.4236C45.2719 52.5574 46.3703 52.408 47.0417 53.0278C47.3389 53.3021 46.5073 53.6542 46.1598 53.8611C45.2967 54.3748 44.4037 55.0959 43.4861 55.5C42.0616 56.1273 40.3866 54.6427 39.2223 54.0417C38.3962 53.6152 35.973 52.6734 36.8889 52.5139C37.9402 52.3307 42.2867 52.4011 42.5417 52.4028C46.2543 52.4272 48.2957 52.4745 52.0139 52.5625C53.3612 52.5944 54.7084 52.6299 56.0556 52.6667C56.9168 52.6901 57.7781 52.7095 58.6389 52.743C58.968 52.7559 59.6153 52.4763 59.625 52.8055C59.6267 52.8614 51.2762 54.4099 50.625 54.5694C46.6635 55.54 51.5827 54.6665 51.6806 54.6458C55.1831 53.905 58.0832 53.1595 61.5556 52.1042C63.5551 51.4964 66.7859 50.5137 68.8195 49.3819C70.0092 48.7198 69.3055 48.4303 68.5556 48.4861C66.5378 48.6363 64.5921 49.4082 62.5695 49.5833C62.3609 49.6014 61.8838 49.7212 61.9445 49.5208C62.0276 49.2464 62.4392 49.2239 62.7084 49.125C63.3496 48.8894 64.0093 48.7067 64.6667 48.5208C65.7602 48.2115 67.2003 47.8512 68.3542 47.625C68.976 47.5031 69.2302 47.459 68.5695 47.75C65.4058 49.1432 62.1181 50.3052 58.875 51.5" stroke="white" stroke-width="3" stroke-linecap="round"/>
		<path d="M55.125 52.25C56.8148 51.6435 58.5327 51.1102 60.1944 50.4306C61.388 49.9424 64.0315 49.1031 61.4028 48.8264C61.2167 48.8068 57.5118 48.8857 56.9722 48.7639C56.8069 48.7266 56.5998 48.4963 56.6806 48.3472C56.8694 47.9985 57.278 47.8228 57.6042 47.5972C58.7951 46.7738 59.8503 46.235 61.2292 45.7153C62.109 45.3837 64.4349 44.5644 65.5694 44.757C65.8005 44.7962 66.078 45.1242 65.9722 45.3333C65.7111 45.8495 65.1503 46.1529 64.6875 46.5C64.165 46.8919 63.5781 47.1899 63.0278 47.5417C62.8466 47.6575 62.2911 47.8287 62.4931 47.9028C62.7979 48.0145 63.1276 47.765 63.4444 47.6945C64.2146 47.5231 64.9971 47.4081 65.7639 47.2222C66.4198 47.0632 63.75 47.6888 63.75 47.0139C63.75 46.9545 67.7014 47.2361 68 47.25" stroke="white" stroke-width="3" stroke-linecap="round"/>
		<path d="M37.25 47.375C37.25 48.1723 37.5552 48.711 37.875 49.4306C38.2662 50.3108 39.1265 51.011 39.8889 51.5556C42.2816 53.2647 45.4386 53.5138 48.2778 53.7847C52.6115 54.1983 56.8594 53.5344 60.1458 50.4306C60.7932 49.8192 61.0614 49.106 61.5 48.375" stroke="#FF0A0A" stroke-linecap="round"/>
		<path d="M61.625 48.875C61.6901 49.5259 62.4905 50.261 63 50.625" stroke="#FF0A0A" stroke-linecap="round"/>
		<path d="M37.25 47.375C36.6638 48.0345 36.4182 48.9217 35.625 49.375" stroke="#FF0A0A" stroke-linecap="round"/>
		<path d="M60.5 33.875C59.998 33.875 59.9478 33.6781 59.625 33.3195C59.422 33.0939 58.8348 31.997 58.7639 33.0139C58.7449 33.2867 58.7082 34.8333 59.1875 34.8333C59.4707 34.8333 59.5042 34.4216 59.5 34.2222C59.4945 33.962 59.4095 33.4718 59.125 33.3611C58.7479 33.2145 59.3069 34.2 59.6875 33.8195C60.2432 33.2638 58.125 32.1786 58.125 33.3264C58.125 33.98 58.1321 34.007 58.6944 34.1945C59.1467 34.3452 59.5284 34.375 60 34.375" stroke="#FF0A0A" stroke-linecap="round"/>
		<path d="M59 34.25H59.125" stroke="white" stroke-width="3" stroke-linecap="round"/>
		<path d="M60.1249 33.625C60.1416 34.1171 60.1189 34.5576 59.8332 34.9861C59.5215 35.4537 59.1585 35.3969 59.0416 34.8195C58.9718 34.4747 58.9015 33.4071 59.4096 33.257C59.8727 33.1201 60.1608 33.9654 60.2221 34.25C60.3192 34.7 60.0242 34.1929 60.111 33.8403C60.2661 33.2104 60.8134 33.2386 61.1666 33.7083C61.4827 34.1288 61.5017 34.6915 61.361 35.1736C61.1615 35.8577 60.8529 35.0495 60.8055 34.7847C60.5528 33.3738 62.1974 33.609 62.3888 34.7847C62.4303 35.0394 62.3616 36.2437 61.7499 36.0417C60.9858 35.7893 61.0203 34.1709 61.0624 33.6458C61.1189 32.9422 61.3747 31.7014 62.1249 31.3333C62.7306 31.0362 62.6277 32.5636 62.6249 32.625C62.5838 33.5466 61.8314 34.5941 61.2499 33.625" stroke="white" stroke-width="3" stroke-linecap="round"/>
		<path d="M57.25 32.625C57.4157 33.5366 58.466 34.5686 59.2361 35.0139C59.986 35.4474 59.0666 32.347 59 32.125" stroke="white" stroke-width="3" stroke-linecap="round"/>
		<path d="M64 33L64.875 33.875" stroke="#FE0000" stroke-width="3" stroke-linecap="round"/>
		<path d="M61.375 33.25C61.389 33.3904 61.4483 33.4957 61.5 33.625" stroke="#FE0000" stroke-width="3" stroke-linecap="round"/>
		<path d="M62.875 34.375C62.8987 34.6357 62.9627 34.875 63.25 34.875" stroke="#FE0000" stroke-width="3" stroke-linecap="round"/>
	</g>
	<defs>
		<clipPath id="clip0_2_6183">
			<rect width="126" height="136" fill="white"/>
		</clipPath>
	</defs>
</svg>
